<?xml version="1.0" encoding="UTF-8"?>
<svg id="Layer_2" data-name="Layer 2" xmlns="http://www.w3.org/2000/svg" xmlns:xlink="http://www.w3.org/1999/xlink" viewBox="0 0 205.28 183.79">
  <defs>
    <style>
      .cls-1 {
        fill: url(#linear-gradient);
      }

      .cls-1, .cls-2 {
        stroke-width: 0px;
      }
    </style>
    <linearGradient id="linear-gradient" x1="65.56" y1="136.69" x2="146.83" y2="74.66" gradientUnits="userSpaceOnUse">
      <stop offset="0" stop-color="#a6802d"/>
      <stop offset=".5" stop-color="#ffd977"/>
      <stop offset="1" stop-color="#a6802d"/>
    </linearGradient>
  </defs>
  <g id="Layer_1-2" data-name="Layer 1">
    <g>
      <path class="cls-1" d="m175.95,181.29c-2.77,0-5.44-1.39-7.95-4.14-3.78-4.14-7.21-7.83-11.1-11.02-10.67-8.78-21.36-17.55-32.06-26.31,0,0-2.69-2.2-3.34-2.73,0,.05,0,.1-.01.14-.11.86-.67,1.6-1.46,1.95-8.84,3.96-17.69,7.89-26.55,11.82-13.17,5.84-26.78,11.87-40.11,17.93-.96.44-1.9,1.59-2.89,2.81-.9,1.1-1.83,2.25-3.02,3.19-.49.39-.98.8-1.48,1.22-2.62,2.19-5.59,4.67-9.04,5.1-.19.02-.38.04-.58.04-3.44,0-7.92-3.97-9.17-7.21-2.26-5.86-3.83-12.35-4.52-18.75-.32-2.99.42-5.65,2.09-7.51,1.47-1.64,3.58-2.54,5.93-2.54,1.27,0,2.59.26,3.92.77,1.98.76,3.83,1.12,5.67,1.12,3.67,0,7.17-1.4,12.11-4.84,12.18-8.48,18.2-18.15,18.94-30.44.22-3.55.96-7.14,2.26-10.97.37-1.09.78-2.17,1.21-3.23-.18.04-.36.06-.54.06-.57,0-1.13-.19-1.58-.56-1.98-1.61-3.96-3.23-5.94-4.85l-2.16-1.77c-.38-.31-1.43-1.1-2.45-1.85l-.87-.65c-.51-.38-.85-.94-.96-1.56-1.23,1.02-2.54,1.51-3.96,1.51-1.32,0-2.69-.44-4.18-1.34-1.92-1.16-4.08-2-6.08-2.36-.62-.11-1.23-.17-1.81-.17-3.26,0-6.2,1.69-9.51,5.47-9.04,10.33-15.42,22.17-22.24,35.46-1.22,2.38-2.41,4.83-3.56,7.21-.57,1.18-1.14,2.36-1.72,3.53-.43.87-1.31,1.4-2.24,1.4-.21,0-.42-.03-.63-.08-1.15-.3-1.93-1.36-1.87-2.55,1.31-26.01,12.03-51.47,27.63-73.1-.55,0-1.08-.19-1.52-.54l-1.29-1.02c-2.84-2.24-6.06-4.77-7.78-6.28-2.83-2.5-3.19-6-.93-8.92,2.43-3.15,4.48-5.67,6.45-7.96,1.77-2.06,3.66-2.49,4.95-2.49,1.35,0,2.67.46,3.93,1.38,2.48,1.8,7.42,5.56,9.43,7.1.49.37.82.91.94,1.5C64.08,23.12,88.21,7.76,110.61,2.57c.19-.04.38-.06.57-.06.95,0,1.83.54,2.26,1.43.5,1.06.2,2.33-.72,3.05l-2.66,2.06c-1.65,1.28-3.17,2.45-4.68,3.64-11.46,9.07-23.3,18.45-32.48,30.35-5.73,7.45-5.63,11.64.46,18.7,2.14,2.49,2.5,5.1,1.08,7.63.58,0,1.13.21,1.58.58.92.77,1.96,1.62,2.63,2.16l.52.42c1.76,1.44,3.51,2.88,5.25,4.33.47.39.76.91.86,1.46.57-.36,1.24-.56,1.92-.56.37,0,.73.06,1.08.17l.17.05c1.63.52,2.66,2.03,2.55,3.69,0,0-.16,2.48-.18,2.68.1-.06.19-.11.3-.15.32-.14.66-.21.99-.21.57,0,1.14.2,1.6.58,8.04,6.68,16.64,13.77,25.5,20.69,3.24,2.53,6.67,5.29,10.46,8.42,1.05.87,2.11,1.75,3.17,2.63,0-.02,0-.05,0-.07.1-.83.6-1.56,1.35-1.94.66-.34,1.33-.68,1.99-1.02,3.62-1.89,5.82-4.59,6.17-7.61.35-2.97-1.13-6.06-4.17-8.68-6.19-5.36-13.03-10.26-20.33-14.57-20.39-12.05-25.61-32.18-28.22-52.14-.13-1.04.26-1.81.65-2.56.63-1.21,1.86-1.96,3.21-1.96s2.57.74,3.19,1.92c.85,1.59,1.68,3.13,2.5,4.63,2.4,4.42,4.66,8.6,6.64,12.92,5.95,13,14.57,22.26,26.37,28.31,4.43,2.28,7.74,3.38,10.11,3.38,2.57,0,5.53-.89,8.05-11.57,2.93-12.36,1.48-25.3.21-36.71-.28-2.53-.35-5.08-.42-7.54-.02-.86-.05-1.71-.08-2.57-.06-1.65.99-3.13,2.57-3.6.38-.11.71-.16,1.04-.16,1.32,0,2.54.73,3.18,1.9.24.46.49.89.73,1.33.88,1.59,1.79,3.24,2.48,5.04,6.14,15.96,6.76,33.1,1.94,53.95-.33,1.45-.71,2.9-1.09,4.35-.85,3.26-1.65,6.33-1.98,9.46-.12,1.09.51,3.07,1,3.81.09,0,.19.01.3.01,1.55,0,3.38-.78,3.99-1.47,9.39-10.75,14.75-23.88,18.38-34.12,4.93-13.91,5.83-28.76,6.7-43.12.13-2.08.52-4.09.85-5.62.45-2.13,2.29-3.71,4.49-3.81.04,0,.24,0,.24,0,2.09,0,3.94,1.33,4.6,3.32.71,2.14,1.42,4.45,1.87,6.83,3.22,17,.96,34.88-6.91,54.65-6.62,16.66-15.75,35.39-33.32,47.95-3.99,2.85-8.6,5.47-14.49,8.23-.14.07-.29.12-.43.16l.35.3c12.22,10.33,25.34,21.15,39.59,29.95,2.2,1.36,3.68,3.42,4.15,5.79.5,2.51-.13,5.18-1.79,7.5-1.54,2.16-3.25,4.17-4.88,6.04-2.34,2.71-4.93,4.09-7.69,4.09h0Zm-87.16-70.95c-.05,1.66-.05,3.16,0,4.59.29,7.16,2.34,8.91,10.45,8.91,1.92,0,3.84-.09,5.72-.27-5.39-4.41-10.79-8.82-16.18-13.23Z"/>
      <path class="cls-2" d="m111.18,5c-2.76,2.15-5.07,3.91-7.36,5.71-11.82,9.36-23.62,18.74-32.91,30.78-6.44,8.36-6.29,13.94.54,21.86,1.75,2.03,1.76,3.78.09,5.79-3.92,4.7-7.85,9.39-11.64,14.19-1.14,1.44-2.25,2.18-3.55,2.18-.86,0-1.8-.32-2.88-.98-2.1-1.27-4.53-2.24-6.93-2.68-.78-.14-1.53-.21-2.26-.21-4.68,0-8.28,2.78-11.39,6.33-9.43,10.78-16.09,23.32-22.58,35.96-1.82,3.56-3.54,7.18-5.3,10.77C8,75.07,62.49,16.29,111.18,5m83.71,3.99c1,0,1.91.64,2.23,1.61.71,2.15,1.37,4.3,1.78,6.5,3.49,18.45.05,36.11-6.77,53.26-7.2,18.12-16.39,35.36-32.45,46.84-4.37,3.12-9.15,5.68-14.1,8-.89-.75-1.77-1.5-2.65-2.24-2.51-2.13-5.05-4.28-7.61-6.44.67-.34,1.34-.68,2.01-1.03,8.99-4.68,10.16-13.76,2.49-20.4-6.4-5.54-13.4-10.53-20.69-14.83-19.29-11.4-24.37-30.14-27.01-50.31-.03-.25.1-.52.39-1.09.21-.4.6-.6.99-.6.39,0,.77.2.98.59,3.35,6.27,6.47,11.72,9.07,17.42,5.92,12.93,14.8,22.98,27.5,29.5,4.66,2.39,8.32,3.66,11.25,3.66,5.35,0,8.29-4.21,10.49-13.49,2.95-12.45,1.66-25.03.26-37.57-.37-3.29-.36-6.61-.49-9.93-.02-.51.3-.96.79-1.11.11-.03.22-.05.33-.05.4,0,.78.22.98.6,1.08,2.01,2.26,3.97,3.07,6.08,6.65,17.27,5.92,34.83,1.84,52.49-1.08,4.7-2.61,9.35-3.12,14.11-.23,2.16,1.12,6.08,2.49,6.44.39.1.82.15,1.29.15,2.07,0,4.68-.96,5.87-2.33,8.88-10.18,14.37-22.27,18.85-34.92,5.04-14.2,5.94-28.97,6.84-43.8.11-1.76.43-3.5.8-5.24.22-1.04,1.12-1.79,2.17-1.84h.12M30.01,36.79c.79,0,1.62.29,2.45.9,2.17,1.57,6.42,4.8,9.39,7.07-1.32,1.44-2.61,2.92-3.89,4.42-2.74,3.21-5.34,6.5-7.8,9.82-2.95-2.32-7.03-5.5-8.96-7.21-1.78-1.57-2.13-3.54-.6-5.52,2.06-2.66,4.17-5.3,6.36-7.85.91-1.05,1.95-1.62,3.05-1.62m44.39,35.07c1.22,1.02,2.66,2.18,3.17,2.6,1.75,1.44,3.5,2.87,5.24,4.32-.06.08-.12.15-.18.23-.91,1.13-1.94,2.4-2.65,4-.8,1.8-1.68,3.62-2.53,5.39-1.08,2.25-2.17,4.52-3.18,6.86-2.7-2.2-5.4-4.41-8.1-6.61-.54-.44-2.09-1.59-3.4-2.57.08-.11.16-.2.22-.28,3.71-4.69,7.63-9.38,11.42-13.92m12.79,8.4c.11,0,.23.02.34.05l.2.06c.49.16.81.62.78,1.14-.22,3.27-.43,6.53-.66,9.8-.45,6.28-1.35,12.58-1.55,18.86-.05,1.63-.06,3.25,0,4.87.36,8.9,3.94,11.31,12.95,11.31,2.18,0,4.32-.11,6.44-.33,4.42,3.62,8.86,7.25,13.31,10.89-22.2,9.95-44.51,19.68-66.67,29.75-2.57,1.17-4.09,4.45-6.44,6.32-2.88,2.3-5.97,5.37-9.26,5.79-.09.01-.17.02-.27.02-2.23,0-5.89-3.16-6.84-5.61-2.22-5.76-3.7-11.97-4.36-18.12-.47-4.42,1.93-7.28,5.53-7.28.94,0,1.95.19,3.02.6,2.33.89,4.5,1.29,6.56,1.29,4.85,0,9.1-2.2,13.53-5.29,11.46-7.98,19.15-18.12,20.01-32.34.22-3.63,1.02-7.04,2.13-10.31,2.01-5.9,5.05-11.4,7.6-17.11.64-1.44,1.76-2.66,2.75-3.93.21-.28.54-.43.87-.43m4.92,6.23c8.44,7.01,16.91,13.99,25.56,20.73,3.51,2.74,6.97,5.54,10.4,8.38,5.67,4.69,11.26,9.47,16.88,14.22,12.74,10.77,25.62,21.35,39.89,30.17,3.52,2.18,4.09,6.29,1.64,9.71-1.46,2.04-3.09,3.96-4.73,5.86-1.87,2.17-3.83,3.23-5.8,3.23s-4.1-1.13-6.11-3.32c-3.59-3.94-7.26-7.89-11.36-11.27-10.67-8.79-21.36-17.55-32.06-26.31-6.51-5.33-13.02-10.66-19.53-15.98-5.52-4.52-11.06-9.04-16.58-13.56.16-3.03.47-6.11.79-9.29.24-2.44.49-4.97.68-7.48.12-1.7.24-3.4.34-5.1M111.18,0c-.37,0-.75.04-1.13.13-22.3,5.17-45.77,19.66-65.61,40.3-1.96-1.49-6.62-5.04-9.03-6.79-1.67-1.21-3.53-1.85-5.39-1.85-2.55,0-4.98,1.19-6.84,3.36-2,2.32-4.07,4.88-6.53,8.05-3.08,3.98-2.58,8.93,1.24,12.32,1.78,1.57,5.04,4.14,7.92,6.4l.6.48C10.48,85.3,1.22,110.39,0,134.46c-.12,2.37,1.44,4.5,3.74,5.09.42.11.84.16,1.26.16,1.87,0,3.63-1.05,4.49-2.79.58-1.18,1.16-2.37,1.74-3.56,1.14-2.36,2.33-4.79,3.53-7.14,6.74-13.13,13.04-24.83,21.9-34.95,2.8-3.2,5.15-4.62,7.63-4.62.44,0,.9.04,1.37.13,1.71.31,3.57,1.03,5.24,2.04,1.89,1.14,3.68,1.7,5.47,1.7,1.11,0,2.18-.21,3.19-.64.07.06.15.12.23.18l.86.64c.91.68,2.03,1.52,2.37,1.8l2.11,1.73c2,1.63,3.99,3.27,5.99,4.89.12.1.24.19.37.27-.08.24-.17.48-.25.72-1.38,4.04-2.16,7.84-2.39,11.62-.7,11.47-6.38,20.53-17.88,28.54-4.48,3.12-7.57,4.39-10.68,4.39-1.53,0-3.09-.31-4.77-.96-1.61-.62-3.23-.93-4.81-.93-3.07,0-5.83,1.2-7.79,3.37-2.15,2.39-3.11,5.75-2.72,9.44.71,6.62,2.33,13.32,4.67,19.39,1.57,4.07,6.94,8.81,11.5,8.81.3,0,.6-.02.89-.06,4.18-.52,7.45-3.25,10.33-5.66.48-.4.96-.8,1.43-1.18,1.39-1.11,2.46-2.42,3.39-3.57.62-.76,1.56-1.92,1.99-2.11,13.32-6.05,26.93-12.09,40.09-17.93,8.71-3.86,17.71-7.85,26.55-11.82.38-.17.74-.39,1.06-.64.36.29.71.58,1.07.88l.07.06c11.79,9.65,22.28,18.26,32.05,26.3,3.76,3.09,7.13,6.71,10.84,10.77,3,3.29,6.3,4.96,9.8,4.96,2.42,0,6.05-.86,9.59-4.96,1.66-1.92,3.42-3.99,5.02-6.22,2.07-2.89,2.85-6.25,2.21-9.45-.61-3.05-2.49-5.69-5.29-7.42-13.08-8.09-25.26-17.93-36.66-27.51,4.6-2.29,8.4-4.54,11.78-6.96,18.2-13.01,27.83-33.05,34.19-49.06,8.04-20.22,10.34-38.55,7.04-56.04-.47-2.51-1.22-4.92-1.95-7.14-1.01-3.02-3.81-5.04-6.98-5.04h-.12c-.08,0-.17,0-.25,0-3.33.17-6.14,2.56-6.82,5.82-.34,1.58-.75,3.71-.9,5.95-.86,14.2-1.75,28.87-6.57,42.45-3.55,10.01-8.78,22.84-17.86,33.26-.16.13-.48.28-.85.41-.08-.33-.12-.64-.11-.84.31-2.9,1.09-5.89,1.91-9.06.37-1.44.76-2.92,1.11-4.42,4.93-21.36,4.29-38.96-2.04-55.41-.75-1.96-1.7-3.68-2.62-5.35-.24-.43-.47-.86-.71-1.3-1.09-2.01-3.15-3.23-5.39-3.23-.58,0-1.15.08-1.74.26-2.69.8-4.48,3.31-4.37,6.1.03.84.05,1.68.08,2.53.07,2.52.14,5.12.43,7.76,1.25,11.21,2.67,23.92-.16,35.86-2.28,9.65-4.54,9.65-5.62,9.65-1.93,0-4.95-1.05-8.97-3.11-11.27-5.79-19.53-14.66-25.23-27.13-2.01-4.4-4.3-8.62-6.72-13.08-.81-1.5-1.64-3.03-2.49-4.61-.69-1.31-1.83-2.3-3.17-2.82,3.7-3.09,7.47-6.08,11.21-9.03,1.49-1.18,3-2.34,4.64-3.61.85-.66,1.74-1.35,2.68-2.08,1.85-1.44,2.46-3.98,1.45-6.1-.84-1.77-2.62-2.85-4.51-2.85h0Zm-33.58,68.02c.58-2.68-.21-5.42-2.36-7.92-5.3-6.15-5.37-9.05-.37-15.55,3.72-4.83,7.91-9.24,12.35-13.4,2.72,20.4,8.23,40.93,29.35,53.41,7.17,4.23,13.88,9.05,19.97,14.31,2.39,2.07,3.57,4.38,3.32,6.5-.25,2.17-1.97,4.19-4.85,5.68-.65.34-1.31.67-1.97,1.01-.28.14-.55.32-.8.51-.33-.27-.66-.55-.99-.82-3.82-3.17-7.26-5.94-10.51-8.47-8.81-6.87-17.4-13.96-25.44-20.64-.54-.45-1.16-.77-1.8-.96.11-2.76-1.62-5.24-4.25-6.08-.03,0-.06-.02-.09-.03l-.18-.05c-.58-.18-1.18-.27-1.79-.27-.26,0-.52.02-.78.05-.13-.13-.27-.26-.41-.38-1.75-1.45-3.5-2.89-5.26-4.34l-.53-.43c-.66-.54-1.69-1.37-2.6-2.13,0,0,0,0-.01-.01h0Zm20.68,53.32c-2.85-.07-4.72-.46-5.56-1.15-.9-.74-1.25-2.73-1.38-4.52,2.31,1.89,4.63,3.78,6.95,5.68h0Z"/>
    </g>
  </g>
</svg>