<?xml version="1.0" encoding="UTF-8"?>
<svg id="Layer_2" data-name="Layer 2" xmlns="http://www.w3.org/2000/svg" viewBox="0 0 258.72 258.72">
  <defs>
    <style>
      .cls-1, .cls-2 {
        stroke-width: 0px;
      }

      .cls-2 {
        fill: #fff;
      }
    </style>
  </defs>
  <g id="Layer_2-2" data-name="Layer 2">
    <g>
      <circle class="cls-1" cx="129.36" cy="129.36" r="129.36"/>
      <path class="cls-2" d="m125.33,162.98c4.42,3.62,8.86,7.25,13.31,10.89-22.2,9.95-44.51,19.68-66.67,29.75-2.57,1.17-4.09,4.45-6.44,6.32-2.88,2.3-5.97,5.37-9.26,5.79-.09.01-.17.02-.27.02-2.23,0-5.89-3.16-6.84-5.61-2.22-5.76-3.7-11.97-4.36-18.12-.47-4.42,1.93-7.28,5.53-7.28.94,0,1.95.19,3.02.6,2.33.89,4.5,1.29,6.56,1.29,4.85,0,9.1-2.2,13.53-5.29,11.46-7.98,19.15-18.12,20.01-32.34.22-3.63,1.02-7.04,2.13-10.31,2.01-5.9,5.05-11.4,7.6-17.11.64-1.44,1.76-2.66,2.75-3.93.21-.28.54-.43.87-.43h.03c.11,0,.23.02.34.05l.2.06c.49.16.81.62.78,1.14-.22,3.27-.43,6.53-.66,9.8-.45,6.28-1.35,12.58-1.55,18.86-.05,1.63-.06,3.25,0,4.87.36,8.9,3.94,11.31,12.95,11.31,2.18,0,4.32-.11,6.44-.33ZM57.59,86.11c1.28-1.5,2.57-2.98,3.89-4.42-2.97-2.27-7.22-5.5-9.39-7.07-.83-.61-1.66-.9-2.45-.9h0c-1.1.01-2.14.58-3.05,1.63-2.19,2.55-4.3,5.19-6.36,7.85-1.53,1.98-1.18,3.95.6,5.52,1.93,1.71,6.01,4.89,8.96,7.21,2.46-3.32,5.06-6.61,7.8-9.82Zm42.02,33.84c.71-1.6,1.74-2.87,2.65-4,.06-.08.12-.15.18-.23-1.74-1.45-3.49-2.88-5.24-4.32-.51-.42-1.95-1.58-3.17-2.6v.02c-3.78,4.54-7.7,9.23-11.41,13.92-.06.08-.14.18-.22.28,1.31.98,2.86,2.13,3.4,2.57,2.7,2.2,5.4,4.41,8.1,6.61,1.01-2.34,2.1-4.61,3.18-6.86.85-1.77,1.73-3.59,2.53-5.39Zm-8.53-19.67c-6.83-7.92-6.98-13.5-.54-21.86,9.29-12.04,21.09-21.42,32.91-30.78,2.29-1.8,4.6-3.56,7.36-5.71C82.12,53.22,27.63,112,24.64,171.63c1.76-3.59,3.48-7.21,5.3-10.77,6.49-12.64,13.15-25.18,22.58-35.96,3.11-3.55,6.71-6.33,11.39-6.33.73,0,1.48.07,2.26.21,2.4.44,4.83,1.41,6.93,2.68,1.08.66,2.02.98,2.88.98,1.3,0,2.41-.74,3.55-2.18,3.79-4.8,7.72-9.49,11.64-14.19,1.67-2.01,1.66-3.76-.09-5.79Zm125.67-52.75c-.32-.97-1.23-1.61-2.23-1.61v.03h-.13c-1.05.05-1.95.8-2.17,1.84-.37,1.74-.69,3.48-.8,5.24-.9,14.83-1.8,29.6-6.84,43.8-4.48,12.65-9.97,24.74-18.85,34.92-1.19,1.37-3.8,2.33-5.87,2.33-.47,0-.9-.05-1.29-.15-1.37-.36-2.72-4.28-2.49-6.44.51-4.76,2.04-9.41,3.12-14.11,4.08-17.66,4.81-35.22-1.84-52.49-.81-2.11-1.99-4.07-3.07-6.08-.2-.38-.58-.6-.98-.6-.11,0-.22.02-.33.05-.49.15-.81.6-.79,1.11.13,3.32.12,6.64.49,9.93,1.4,12.54,2.69,25.12-.26,37.57-2.2,9.28-5.14,13.49-10.49,13.49-2.93,0-6.59-1.27-11.25-3.66-12.7-6.52-21.58-16.57-27.5-29.5-2.6-5.7-5.72-11.15-9.07-17.42-.21-.39-.59-.59-.98-.59s-.78.2-.99.6c-.29.57-.42.84-.39,1.09,2.64,20.17,7.72,38.91,27.01,50.31,7.29,4.3,14.29,9.29,20.69,14.83,7.67,6.64,6.5,15.72-2.49,20.4-.67.35-1.34.69-2.01,1.03,2.56,2.16,5.1,4.31,7.61,6.44.88.74,1.76,1.49,2.65,2.24,4.95-2.32,9.73-4.88,14.1-8,16.06-11.48,25.25-28.72,32.45-46.84,6.82-17.15,10.26-34.81,6.77-53.26-.41-2.2-1.07-4.35-1.78-6.5Zm-69.07,105.03c-3.43-2.84-6.89-5.64-10.4-8.38-8.65-6.74-17.11-13.72-25.55-20.72-.1,1.69-.22,3.39-.34,5.08-.19,2.51-.44,5.04-.68,7.48-.32,3.18-.63,6.26-.79,9.29,5.52,4.52,11.06,9.04,16.58,13.56,6.51,5.32,13.02,10.65,19.53,15.98,10.7,8.76,21.39,17.52,32.06,26.31,4.1,3.38,7.77,7.33,11.36,11.27,2.01,2.19,4.14,3.32,6.11,3.32s3.93-1.06,5.8-3.23c1.64-1.9,3.27-3.82,4.73-5.86,2.45-3.42,1.88-7.53-1.64-9.71-14.27-8.82-27.15-19.4-39.89-30.17-5.62-4.75-11.21-9.53-16.88-14.22Z"/>
    </g>
  </g>
</svg>